<svg xmlns="http://www.w3.org/2000/svg" width="72" height="72" viewBox="0 0 72 72" fill="none">
<path d="M48.45 23.45L44.58 27.15C44.34 26.94 44.21 26.62 44.21 26.2C44.21 25.52 44.21 24.85 44.21 24.17C44.21 23.45 44.66 22.99 45.39 22.99C46.1 22.99 46.81 22.99 47.52 22.99C47.93 22.99 48.26 23.17 48.45 23.45Z" fill="#FAA32F"/>
<path d="M48.8901 27.2L48.4801 27.57L48.2401 27.79C48.0801 27.57 47.8201 27.45 47.4601 27.43C46.7901 27.41 46.1201 27.42 45.4601 27.42C45.1001 27.42 44.8101 27.32 44.6001 27.14L48.4701 23.44C48.5901 23.62 48.6601 23.85 48.6601 24.12C48.6601 24.48 48.6601 24.84 48.6601 25.28C48.6801 25.68 48.6301 26.17 48.6901 26.65C48.7101 26.9 48.7801 27.08 48.8901 27.2Z" fill="#F47B22"/>
<path d="M51.25 30.35C51.11 30.47 50.92 30.54 50.68 30.54C50.2 30.55 49.71 30.51 49.22 30.57C48.98 30.6 48.81 30.69 48.7 30.84L48.36 30.53L48.03 30.23C48.25 30.08 48.37 29.83 48.39 29.49C48.41 29.12 48.41 28.74 48.39 28.37C48.38 28.13 48.32 27.94 48.22 27.79L48.46 27.57L51.25 30.35Z" fill="#C42329"/>
<path d="M51.51 29.73C51.51 30 51.42 30.21 51.25 30.35L48.47 27.57L48.88 27.2C49.02 27.36 49.24 27.44 49.54 27.44C49.91 27.45 50.29 27.44 50.66 27.44C51.2 27.45 51.5 27.75 51.5 28.29C51.51 28.78 51.52 29.26 51.51 29.73Z" fill="#E42F40"/>
<path d="M48.93 33.15L48.22 33.86C48.03 33.66 47.76 33.56 47.39 33.55C47.02 33.54 46.64 33.55 46.27 33.55C46.05 33.55 45.86 33.49 45.72 33.37L48.38 30.54L48.72 30.85C48.66 30.94 48.62 31.06 48.61 31.21C48.57 31.66 48.56 32.12 48.61 32.57C48.63 32.81 48.75 33.01 48.93 33.15Z" fill="#B4217A"/>
<path d="M48.3699 30.53L45.7099 33.36C45.5299 33.22 45.4299 33 45.4299 32.72C45.4299 32.21 45.4299 31.7 45.4299 31.19C45.4299 30.71 45.7599 30.39 46.2499 30.39C46.6499 30.39 47.0499 30.39 47.4399 30.39C47.6799 30.39 47.8799 30.33 48.0399 30.23L48.3699 30.53Z" fill="#E31567"/>
<path d="M52.4 37.2C52.22 37.4 51.93 37.51 51.58 37.51C50.93 37.51 50.28 37.51 49.62 37.51C48.96 37.51 48.55 37.09 48.54 36.44C48.53 35.81 48.58 35.17 48.5 34.53C48.46 34.23 48.37 34.01 48.22 33.84L48.63 33.43L52.4 37.2Z" fill="#512F61"/>
<path d="M52.6899 34.55C52.6599 35.18 52.6699 35.81 52.6699 36.43C52.6699 36.75 52.5699 37.01 52.3999 37.2L48.6399 33.44L48.9399 33.14C49.0999 33.26 49.3199 33.34 49.5899 33.36C50.2499 33.42 50.9099 33.38 51.5699 33.39C52.2999 33.4 52.7199 33.81 52.6899 34.55Z" fill="#7F2A91"/>
<path d="M43.3001 31.06C43.1701 31.15 43.0101 31.2 42.8201 31.21C42.5301 31.21 42.2501 31.21 41.9601 31.21C41.6601 31.21 41.3701 31.22 41.0801 31.21C40.6801 31.2 40.3901 30.92 40.3801 30.51C40.3701 29.92 40.3701 29.33 40.3801 28.74C40.3801 28.56 40.4301 28.41 40.5201 28.29L43.3001 31.06Z" fill="#10659C"/>
<path d="M54.1799 25.35L52.4599 27.07C52.3199 27 52.2399 26.86 52.2299 26.67C52.2199 26.3 52.2199 25.92 52.2299 25.55C52.2399 25.3 52.4099 25.13 52.6599 25.13C53.0399 25.12 53.4199 25.12 53.7999 25.13C53.9899 25.14 54.1199 25.22 54.1799 25.35Z" fill="#0B6192"/>
<path d="M54.24 26.13C54.24 26.31 54.24 26.48 54.24 26.65C54.23 26.94 54.08 27.12 53.79 27.13C53.43 27.14 53.06 27.14 52.69 27.13C52.6 27.13 52.53 27.11 52.46 27.07L54.18 25.35C54.21 25.41 54.23 25.49 54.23 25.57C54.24 25.76 54.24 25.94 54.24 26.13Z" fill="#0FACE3"/>
<path d="M50.83 21.91C50.78 22.03 50.67 22.09 50.49 22.09C50.35 22.09 50.2 22.09 50.06 22.09C49.94 22.09 49.82 22.09 49.7 22.09C49.43 22.09 49.3 21.97 49.3 21.7C49.3 21.44 49.3 21.18 49.3 20.92C49.3 20.8 49.33 20.71 49.38 20.65L50.83 21.91Z" fill="#A5282E"/>
<path d="M50.8699 21.73C50.8699 21.8 50.8599 21.86 50.8299 21.91L49.3999 20.65C49.4499 20.59 49.5399 20.55 49.6599 20.55C49.9499 20.54 50.2499 20.54 50.5399 20.55C50.7599 20.56 50.8699 20.69 50.8799 20.9C50.8799 21.18 50.8799 21.45 50.8699 21.73Z" fill="#EB1D31"/>
<path d="M50.8699 40.25C50.8699 40.39 50.8199 40.49 50.7399 40.55L49.4399 39.15C49.4999 39.1 49.5799 39.08 49.6799 39.07C49.7499 39.07 49.8199 39.07 49.8999 39.07H50.1099C50.2199 39.07 50.3299 39.07 50.4399 39.07C50.7499 39.07 50.8599 39.18 50.8699 39.48C50.8799 39.74 50.8699 40 50.8699 40.25Z" fill="#F47B20"/>
<path d="M25.06 31.75L17.76 35.96V27.54L25.06 31.75Z" fill="#E31567"/>
<path d="M25.06 40.25L17.76 44.46V36.04L25.06 40.25Z" fill="#7F2A91"/>
<path d="M25.12 40.29V48.71L25.06 48.75L17.76 44.54V44.46L25.06 40.25L25.12 40.29Z" fill="#512F61"/>
<path d="M25.12 31.79V40.21L25.06 40.25L17.76 36.04V35.96L25.06 31.75L25.12 31.79Z" fill="#B4217A"/>
<path d="M32.4201 44.5L25.1201 48.71V40.29L32.4201 44.5Z" fill="#106292"/>
<path d="M25.12 23.29V31.71L25.06 31.75L17.76 27.54V27.46L25.06 23.25L25.12 23.29Z" fill="#A5282E"/>
<path d="M47.1401 44.5L39.8401 48.71V40.29L47.1401 44.5Z" fill="#1A693A"/>
<path d="M39.78 23.25L32.49 27.46V19.04L39.78 23.25Z" fill="#E42F40"/>
<path d="M32.4901 19.04V27.46L32.4201 27.5L25.1201 23.29V23.21L32.4201 19L32.4901 19.04Z" fill="#C42329"/>
<path d="M32.4201 27.5L29.5001 29.19L25.1201 31.71V23.29L32.4201 27.5Z" fill="#EB1D31"/>
<path d="M32.4901 44.54V52.96L32.4201 53L29.5001 51.31L25.1201 48.79V48.71L32.4201 44.5L32.4901 44.54Z" fill="#0F82B8"/>
<path d="M39.78 48.75L32.49 52.96V44.54L39.78 48.75Z" fill="#17A9E2"/>
<path d="M39.84 40.29V48.71L39.78 48.75L32.49 44.54V44.46L39.78 40.25L39.84 40.29Z" fill="#1CA685"/>
<path d="M43.57 30.49C43.57 30.74 43.47 30.94 43.3 31.07L40.53 28.3C40.65 28.14 40.84 28.04 41.08 28.03C41.68 28.02 42.29 28.02 42.89 28.03C43.27 28.04 43.56 28.35 43.57 28.73C43.58 29.31 43.58 29.9 43.57 30.49Z" fill="#0F82B8"/>
<path d="M46.73 36.88C46.72 37.19 46.56 37.38 46.25 37.39C45.86 37.4 45.47 37.4 45.08 37.39C44.96 37.39 44.86 37.35 44.78 37.29L46.62 35.45C46.69 35.53 46.73 35.65 46.73 35.79C46.73 35.97 46.73 36.15 46.73 36.34C46.73 36.52 46.73 36.7 46.73 36.88Z" fill="#3DB049"/>
<path d="M46.62 35.45L44.78 37.29C44.67 37.21 44.61 37.07 44.61 36.9C44.6 36.54 44.6 36.17 44.61 35.81C44.62 35.45 44.78 35.29 45.15 35.29C45.51 35.28 45.86 35.28 46.22 35.29C46.4 35.29 46.54 35.34 46.62 35.45Z" fill="#A7CF3A"/>
<path d="M50.7401 40.56C50.6801 40.6 50.6001 40.63 50.5001 40.63C50.2201 40.64 49.9401 40.64 49.6601 40.63C49.4301 40.62 49.3101 40.5 49.3101 40.27C49.3001 40 49.3101 39.73 49.3101 39.46C49.3101 39.32 49.3501 39.22 49.4301 39.16L50.7401 40.56Z" fill="#F15E28"/>
</svg>