<svg width="161" height="17" viewBox="0 0 161 17" fill="none" xmlns="http://www.w3.org/2000/svg">
<path d="M152.059 17H148.651C145.747 17 143.611 15.992 142.123 14.36C140.827 12.944 140.035 11.024 140.035 8.888C140.035 6.536 141.043 4.4 142.651 2.912C144.091 1.592 146.035 0.775997 148.651 0.775997H152.059C154.675 0.775997 156.619 1.592 158.059 2.912C159.667 4.4 160.675 6.536 160.675 8.888C160.675 11.024 159.883 12.944 158.587 14.36C157.099 15.992 154.963 17 152.059 17ZM152.059 5.072H148.651C147.187 5.072 146.275 5.48 145.579 6.128C144.835 6.824 144.379 7.832 144.379 8.912C144.379 9.896 144.763 10.808 145.387 11.48C146.083 12.248 147.115 12.728 148.651 12.728H152.059C153.595 12.728 154.627 12.248 155.323 11.48C155.947 10.808 156.331 9.896 156.331 8.912C156.331 7.832 155.875 6.824 155.131 6.128C154.435 5.48 153.523 5.072 152.059 5.072Z" fill="#B4217A"/>
<path d="M133.599 0.775997H137.967V17H133.599V0.775997Z" fill="#1CA685"/>
<path d="M126.596 12.776H130.964V17H126.596V12.776Z" fill="#7F2A91"/>
<path d="M124.059 0.775997V5.072H112.395C111.867 5.072 111.579 5.192 111.387 5.384C111.171 5.6 111.051 5.888 111.051 6.224C111.051 6.584 111.219 6.896 111.459 7.088C111.651 7.256 111.891 7.328 112.395 7.328H119.523C121.347 7.328 122.571 7.904 123.435 8.792C124.299 9.68 124.827 10.88 124.827 12.152C124.827 13.328 124.371 14.456 123.627 15.32C122.739 16.352 121.443 17 119.523 17H106.947V12.848H118.755C119.427 12.848 119.763 12.704 119.979 12.44C120.147 12.248 120.243 11.984 120.243 11.696C120.243 11.36 120.123 11.048 119.907 10.832C119.691 10.592 119.379 10.472 118.755 10.472H112.155C109.995 10.472 108.747 9.896 107.883 9.008C107.019 8.12 106.515 6.944 106.515 5.624C106.515 4.328 107.043 3.128 107.907 2.24C108.771 1.352 109.995 0.775997 112.155 0.775997H124.059Z" fill="#F47B22"/>
<path d="M99.0953 17H91.8232C87.7432 17 86.1353 15.44 86.1353 11.816V0.775997H90.5033V11.336C90.5033 12.344 90.9832 12.848 92.0632 12.848H98.8073C99.8873 12.848 100.415 12.368 100.415 11.336V0.775997H104.783V11.816C104.783 15.44 103.175 17 99.0953 17Z" fill="#1A693A"/>
<path d="M84.1865 12.728V17H75.6905C72.7865 17 70.6505 15.992 69.1625 14.36C67.8665 12.944 67.0745 11.024 67.0745 8.888C67.0745 6.536 68.0825 4.4 69.6905 2.912C71.1305 1.592 73.0745 0.775997 75.6905 0.775997H84.1865V5.072H75.6905C74.2265 5.072 73.3145 5.48 72.6185 6.128C71.8745 6.824 71.4185 7.832 71.4185 8.912C71.4185 9.896 71.8025 10.808 72.4265 11.48C73.1225 12.248 74.1545 12.728 75.6905 12.728H84.1865Z" fill="#17A9E2"/>
<path d="M60.6382 0.775997H65.0062V17H60.6382V0.775997Z" fill="#106292"/>
<path d="M41.9604 0.775997H53.5524C55.2564 0.775997 56.6004 1.304 57.5364 2.312C58.2804 3.104 58.7604 4.184 58.7604 5.552C58.7604 6.944 58.1844 8.144 57.1284 8.84C58.3284 9.464 58.9284 10.88 58.9284 12.368C58.9284 13.52 58.4964 14.576 57.8004 15.392C56.9604 16.376 55.7124 17 53.7924 17H41.9604C41.2404 17 40.8804 16.664 40.8804 15.968V1.784C40.8804 1.112 41.2404 0.775997 41.9604 0.775997ZM45.2244 10.328V12.704C45.2244 12.944 45.3204 13.064 45.5604 13.064H52.7604C53.4084 13.064 53.7924 12.872 54.0324 12.584C54.2484 12.32 54.3684 12.008 54.3684 11.672C54.3684 11.336 54.2244 11.024 54.0084 10.784C53.7444 10.496 53.4084 10.328 52.7604 10.328H45.2244ZM45.2244 7.424H52.7844C53.3844 7.424 53.7444 7.232 53.9844 6.92C54.1524 6.704 54.2724 6.416 54.2724 6.128C54.2724 5.84 54.1524 5.552 53.9844 5.336C53.7444 5.048 53.3844 4.856 52.7844 4.856H45.5604C45.3204 4.856 45.2244 4.976 45.2244 5.216V7.424Z" fill="#512F61"/>
<path d="M32.8609 17H25.5889C21.5089 17 19.9009 15.44 19.9009 11.816V0.775997H24.2689V11.336C24.2689 12.344 24.7489 12.848 25.8289 12.848H32.5729C33.6529 12.848 34.1809 12.368 34.1809 11.336V0.775997H38.5489V11.816C38.5489 15.44 36.9409 17 32.8609 17Z" fill="#B4217A"/>
<path d="M17.9521 12.728V17H9.45609C6.55209 17 4.41609 15.992 2.92809 14.36C1.63209 12.944 0.840088 11.024 0.840088 8.888C0.840088 6.536 1.84809 4.4 3.45609 2.912C4.89609 1.592 6.84009 0.775997 9.45609 0.775997H17.9521V5.072H9.45609C7.99209 5.072 7.08009 5.48 6.38409 6.128C5.64009 6.824 5.18409 7.832 5.18409 8.912C5.18409 9.896 5.56809 10.808 6.19209 11.48C6.88809 12.248 7.92009 12.728 9.45609 12.728H17.9521Z" fill="#EB1D31"/>
</svg>
