<svg width="162" height="92" viewBox="0 0 162 92" fill="none" xmlns="http://www.w3.org/2000/svg">
<path d="M17.952 81.728V86H9.456C6.552 86 4.416 84.992 2.928 83.36C1.632 81.944 0.84 80.024 0.84 77.888C0.84 75.536 1.848 73.4 3.456 71.912C4.896 70.592 6.84 69.776 9.456 69.776H17.952V74.072H9.456C7.992 74.072 7.08 74.48 6.384 75.128C5.64 75.824 5.184 76.832 5.184 77.912C5.184 78.896 5.568 79.808 6.192 80.48C6.888 81.248 7.92 81.728 9.456 81.728H17.952Z" fill="#FF051D"/>
<path d="M32.8609 86H25.5889C21.5089 86 19.9009 84.44 19.9009 80.816V69.776H24.2689V80.336C24.2689 81.344 24.7489 81.848 25.8289 81.848H32.5729C33.6529 81.848 34.1809 81.368 34.1809 80.336V69.776H38.5489V80.816C38.5489 84.44 36.9409 86 32.8609 86ZM152.059 86H148.651C145.747 86 143.611 84.992 142.123 83.36C140.827 81.944 140.035 80.024 140.035 77.888C140.035 75.536 141.043 73.4 142.651 71.912C144.091 70.592 146.035 69.776 148.651 69.776H152.059C154.675 69.776 156.619 70.592 158.059 71.912C159.667 73.4 160.675 75.536 160.675 77.888C160.675 80.024 159.883 81.944 158.587 83.36C157.099 84.992 154.963 86 152.059 86ZM152.059 74.072H148.651C147.187 74.072 146.275 74.48 145.579 75.128C144.835 75.824 144.379 76.832 144.379 77.912C144.379 78.896 144.763 79.808 145.387 80.48C146.083 81.248 147.115 81.728 148.651 81.728H152.059C153.595 81.728 154.627 81.248 155.323 80.48C155.947 79.808 156.331 78.896 156.331 77.912C156.331 76.832 155.875 75.824 155.131 75.128C154.435 74.48 153.523 74.072 152.059 74.072Z" fill="#E12E9A"/>
<path d="M41.9603 69.776H53.5523C55.2563 69.776 56.6003 70.304 57.5363 71.312C58.2803 72.104 58.7603 73.184 58.7603 74.552C58.7603 75.944 58.1843 77.144 57.1283 77.84C58.3283 78.464 58.9283 79.88 58.9283 81.368C58.9283 82.52 58.4963 83.576 57.8003 84.392C56.9603 85.376 55.7123 86 53.7923 86H41.9603C41.2402 86 40.8803 85.664 40.8803 84.968V70.784C40.8803 70.112 41.2402 69.776 41.9603 69.776ZM45.2243 79.328V81.704C45.2243 81.944 45.3203 82.064 45.5603 82.064H52.7603C53.4083 82.064 53.7923 81.872 54.0323 81.584C54.2483 81.32 54.3683 81.008 54.3683 80.672C54.3683 80.336 54.2243 80.024 54.0083 79.784C53.7443 79.496 53.4083 79.328 52.7603 79.328H45.2243ZM45.2243 76.424H52.7843C53.3843 76.424 53.7443 76.232 53.9843 75.92C54.1523 75.704 54.2723 75.416 54.2723 75.128C54.2723 74.84 54.1523 74.552 53.9843 74.336C53.7443 74.048 53.3843 73.856 52.7843 73.856H45.5603C45.3203 73.856 45.2243 73.976 45.2243 74.216V76.424Z" fill="#69178F"/>
<path d="M60.6381 69.776H65.0061V86H60.6381V69.776Z" fill="#0A7ABC"/>
<path d="M84.1864 81.728V86H75.6904C72.7864 86 70.6504 84.992 69.1624 83.36C67.8664 81.944 67.0744 80.024 67.0744 77.888C67.0744 75.536 68.0824 73.4 69.6904 71.912C71.1304 70.592 73.0744 69.776 75.6904 69.776H84.1864V74.072H75.6904C74.2264 74.072 73.3144 74.48 72.6184 75.128C71.8744 75.824 71.4184 76.832 71.4184 77.912C71.4184 78.896 71.8024 79.808 72.4264 80.48C73.1224 81.248 74.1544 81.728 75.6904 81.728H84.1864Z" fill="#17A9E2"/>
<path d="M99.0953 86H91.8233C87.7433 86 86.1353 84.44 86.1353 80.816V69.776H90.5033V80.336C90.5033 81.344 90.9833 81.848 92.0633 81.848H98.8073C99.8873 81.848 100.415 81.368 100.415 80.336V69.776H104.783V80.816C104.783 84.44 103.175 86 99.0953 86Z" fill="#128641"/>
<path d="M124.059 69.776V74.072H112.395C111.867 74.072 111.579 74.192 111.387 74.384C111.171 74.6 111.051 74.888 111.051 75.224C111.051 75.584 111.219 75.896 111.459 76.088C111.651 76.256 111.891 76.328 112.395 76.328H119.523C121.347 76.328 122.571 76.904 123.435 77.792C124.299 78.68 124.827 79.88 124.827 81.152C124.827 82.328 124.371 83.456 123.627 84.32C122.739 85.352 121.443 86 119.523 86H106.947V81.848H118.755C119.427 81.848 119.763 81.704 119.979 81.44C120.147 81.248 120.243 80.984 120.243 80.696C120.243 80.36 120.123 80.048 119.907 79.832C119.691 79.592 119.379 79.472 118.755 79.472H112.155C109.995 79.472 108.747 78.896 107.883 78.008C107.019 77.12 106.515 75.944 106.515 74.624C106.515 73.328 107.043 72.128 107.907 71.24C108.771 70.352 109.995 69.776 112.155 69.776H124.059Z" fill="#F47B22"/>
<path d="M126.596 81.776H130.964V86H126.596V81.776Z" fill="#B244C9"/>
<path d="M133.599 69.776H137.967V86H133.599V69.776Z" fill="#1CA685"/>
<path d="M93.45 23.4502L89.58 27.1502C89.34 26.9402 89.21 26.6202 89.21 26.2002C89.21 25.5202 89.21 24.8502 89.21 24.1702C89.21 23.4502 89.66 22.9902 90.39 22.9902C91.1 22.9902 91.81 22.9902 92.52 22.9902C92.93 22.9902 93.26 23.1702 93.45 23.4502Z" fill="#FAA32F"/>
<path d="M93.8896 27.1999L93.4796 27.5699L93.2396 27.7899C93.0796 27.5699 92.8196 27.4499 92.4596 27.4299C91.7896 27.4099 91.1196 27.4199 90.4596 27.4199C90.0996 27.4199 89.8096 27.3199 89.5996 27.1399L93.4696 23.4399C93.5896 23.6199 93.6596 23.8499 93.6596 24.1199C93.6596 24.4799 93.6596 24.8399 93.6596 25.2799C93.6796 25.6799 93.6296 26.1699 93.6896 26.6499C93.7096 26.8999 93.7796 27.0799 93.8896 27.1999Z" fill="#F47B22"/>
<path d="M96.2498 30.3498C96.1098 30.4698 95.9198 30.5398 95.6798 30.5398C95.1998 30.5498 94.7098 30.5098 94.2198 30.5698C93.9798 30.5998 93.8098 30.6898 93.6998 30.8398L93.3598 30.5298L93.0298 30.2298C93.2498 30.0798 93.3698 29.8298 93.3898 29.4898C93.4098 29.1198 93.4098 28.7398 93.3898 28.3698C93.3798 28.1298 93.3198 27.9398 93.2198 27.7898L93.4598 27.5698L96.2498 30.3498Z" fill="#C42329"/>
<path d="M96.5097 29.7302C96.5097 30.0002 96.4197 30.2102 96.2497 30.3502L93.4697 27.5702L93.8797 27.2002C94.0197 27.3602 94.2397 27.4402 94.5397 27.4402C94.9097 27.4502 95.2897 27.4402 95.6597 27.4402C96.1997 27.4502 96.4997 27.7502 96.4997 28.2902C96.5097 28.7802 96.5197 29.2602 96.5097 29.7302Z" fill="#E42F40"/>
<path d="M93.9297 33.15L93.2197 33.86C93.0297 33.66 92.7597 33.56 92.3897 33.55C92.0197 33.54 91.6397 33.55 91.2697 33.55C91.0497 33.55 90.8597 33.49 90.7197 33.37L93.3797 30.54L93.7197 30.85C93.6597 30.94 93.6197 31.06 93.6097 31.21C93.5697 31.66 93.5597 32.12 93.6097 32.57C93.6297 32.81 93.7497 33.01 93.9297 33.15Z" fill="#E12E9A"/>
<path d="M93.3697 30.53L90.7097 33.36C90.5297 33.22 90.4297 33 90.4297 32.72C90.4297 32.21 90.4297 31.7 90.4297 31.19C90.4297 30.71 90.7597 30.39 91.2497 30.39C91.6497 30.39 92.0497 30.39 92.4397 30.39C92.6797 30.39 92.8797 30.33 93.0397 30.23L93.3697 30.53Z" fill="#E31567"/>
<path d="M97.3997 37.2002C97.2197 37.4002 96.9297 37.5102 96.5797 37.5102C95.9297 37.5102 95.2797 37.5102 94.6197 37.5102C93.9597 37.5102 93.5497 37.0902 93.5397 36.4402C93.5297 35.8102 93.5797 35.1702 93.4997 34.5302C93.4597 34.2302 93.3697 34.0102 93.2197 33.8402L93.6297 33.4302L97.3997 37.2002Z" fill="#69178F"/>
<path d="M97.6897 34.5501C97.6597 35.1801 97.6697 35.8101 97.6697 36.4301C97.6697 36.7501 97.5696 37.0101 97.3996 37.2001L93.6396 33.4401L93.9396 33.1401C94.0996 33.2601 94.3196 33.3401 94.5896 33.3601C95.2496 33.4201 95.9097 33.3801 96.5697 33.3901C97.2997 33.4001 97.7197 33.8101 97.6897 34.5501Z" fill="#B244C9"/>
<path d="M88.2996 31.06C88.1696 31.15 88.0096 31.2 87.8196 31.21C87.5296 31.21 87.2496 31.21 86.9596 31.21C86.6596 31.21 86.3696 31.22 86.0796 31.21C85.6796 31.2 85.3896 30.92 85.3796 30.51C85.3696 29.92 85.3696 29.33 85.3796 28.74C85.3796 28.56 85.4296 28.41 85.5196 28.29L88.2996 31.06Z" fill="#10659C"/>
<path d="M99.1797 25.3501L97.4597 27.0701C97.3197 27.0001 97.2397 26.8601 97.2297 26.6701C97.2197 26.3001 97.2197 25.9201 97.2297 25.5501C97.2397 25.3001 97.4097 25.1301 97.6597 25.1301C98.0397 25.1201 98.4197 25.1201 98.7997 25.1301C98.9897 25.1401 99.1197 25.2201 99.1797 25.3501Z" fill="#0B6192"/>
<path d="M99.24 26.1301C99.24 26.3101 99.24 26.4801 99.24 26.6501C99.23 26.9401 99.08 27.1201 98.79 27.1301C98.43 27.1401 98.06 27.1401 97.69 27.1301C97.6 27.1301 97.53 27.1101 97.46 27.0701L99.18 25.3501C99.21 25.4101 99.23 25.4901 99.23 25.5701C99.24 25.7601 99.24 25.9401 99.24 26.1301Z" fill="#0FACE3"/>
<path d="M95.8298 21.9099C95.7798 22.0299 95.6698 22.0899 95.4898 22.0899C95.3498 22.0899 95.1998 22.0899 95.0598 22.0899C94.9398 22.0899 94.8198 22.0899 94.6998 22.0899C94.4298 22.0899 94.2998 21.9699 94.2998 21.6999C94.2998 21.4399 94.2998 21.1799 94.2998 20.9199C94.2998 20.7999 94.3298 20.7099 94.3798 20.6499L95.8298 21.9099Z" fill="#A5282E"/>
<path d="M95.8699 21.73C95.8699 21.8 95.8599 21.86 95.8299 21.91L94.3999 20.65C94.4499 20.59 94.5399 20.55 94.6599 20.55C94.9499 20.54 95.2499 20.54 95.5399 20.55C95.7599 20.56 95.8699 20.69 95.8799 20.9C95.8799 21.18 95.8799 21.45 95.8699 21.73Z" fill="#FF051D"/>
<path d="M95.8699 40.2498C95.8699 40.3898 95.8199 40.4898 95.7399 40.5498L94.4399 39.1498C94.4999 39.0998 94.5799 39.0798 94.6799 39.0698C94.7499 39.0698 94.8199 39.0698 94.8999 39.0698H95.1099C95.2199 39.0698 95.3299 39.0698 95.4399 39.0698C95.7499 39.0698 95.8599 39.1798 95.8699 39.4798C95.8799 39.7398 95.8699 39.9998 95.8699 40.2498Z" fill="#F47B20"/>
<path d="M70.0598 31.75L62.7598 35.96V27.54L70.0598 31.75Z" fill="#E31567"/>
<path d="M70.0598 40.25L62.7598 44.46V36.04L70.0598 40.25Z" fill="#B244C9"/>
<path d="M70.1198 40.29V48.71L70.0598 48.75L62.7598 44.54V44.46L70.0598 40.25L70.1198 40.29Z" fill="#69178F"/>
<path d="M70.1198 31.79V40.21L70.0598 40.25L62.7598 36.04V35.96L70.0598 31.75L70.1198 31.79Z" fill="#E12E9A"/>
<path d="M77.4196 44.5L70.1196 48.71V40.29L77.4196 44.5Z" fill="#0A7ABC"/>
<path d="M70.1198 23.29V31.71L70.0598 31.75L62.7598 27.54V27.46L70.0598 23.25L70.1198 23.29Z" fill="#A5282E"/>
<path d="M92.1398 44.5L84.8398 48.71V40.29L92.1398 44.5Z" fill="#128641"/>
<path d="M84.7797 23.25L77.4897 27.46V19.04L84.7797 23.25Z" fill="#E42F40"/>
<path d="M77.4896 19.04V27.46L77.4196 27.5L70.1196 23.29V23.21L77.4196 19L77.4896 19.04Z" fill="#C42329"/>
<path d="M77.4196 27.5L74.4996 29.19L70.1196 31.71V23.29L77.4196 27.5Z" fill="#FF051D"/>
<path d="M77.4896 44.54V52.96L77.4196 53L74.4996 51.31L70.1196 48.79V48.71L77.4196 44.5L77.4896 44.54Z" fill="#176C94"/>
<path d="M84.7797 48.75L77.4897 52.96V44.54L84.7797 48.75Z" fill="#17A9E2"/>
<path d="M84.8397 40.29V48.71L84.7797 48.75L77.4897 44.54V44.46L84.7797 40.25L84.8397 40.29Z" fill="#1CA685"/>
<path d="M88.5698 30.49C88.5698 30.74 88.4698 30.94 88.2998 31.07L85.5298 28.3C85.6498 28.14 85.8398 28.04 86.0798 28.03C86.6798 28.02 87.2898 28.02 87.8898 28.03C88.2698 28.04 88.5598 28.35 88.5698 28.73C88.5798 29.31 88.5798 29.9 88.5698 30.49Z" fill="#176C94"/>
<path d="M91.7298 36.8802C91.7198 37.1902 91.5598 37.3802 91.2498 37.3902C90.8598 37.4002 90.4698 37.4002 90.0798 37.3902C89.9598 37.3902 89.8598 37.3502 89.7798 37.2902L91.6198 35.4502C91.6898 35.5302 91.7298 35.6502 91.7298 35.7902C91.7298 35.9702 91.7298 36.1502 91.7298 36.3402C91.7298 36.5202 91.7298 36.7002 91.7298 36.8802Z" fill="#3DB049"/>
<path d="M91.6196 35.4502L89.7795 37.2902C89.6695 37.2102 89.6096 37.0702 89.6096 36.9002C89.5996 36.5402 89.5996 36.1702 89.6096 35.8102C89.6196 35.4502 89.7796 35.2902 90.1496 35.2902C90.5096 35.2802 90.8596 35.2802 91.2196 35.2902C91.3996 35.2902 91.5396 35.3402 91.6196 35.4502Z" fill="#A7CF3A"/>
<path d="M95.7396 40.5602C95.6796 40.6002 95.5996 40.6302 95.4996 40.6302C95.2196 40.6402 94.9396 40.6402 94.6596 40.6302C94.4296 40.6202 94.3096 40.5002 94.3096 40.2702C94.2996 40.0002 94.3096 39.7302 94.3096 39.4602C94.3096 39.3202 94.3496 39.2202 94.4296 39.1602L95.7396 40.5602Z" fill="#F15E28"/>
</svg>
