<svg width="42" height="42" viewBox="0 0 42 42" fill="none" xmlns="http://www.w3.org/2000/svg">
<g id="icon">
<path id="Vector" d="M37 28.0002V13.0002L24.5 5.96924M17.5 5.96924L5 13.0002V28.0002M8 32.6882L21 40.0002L29 35.5002L34 32.6882M21 15.0002L24 16.7502L27 18.5002V25.5002L24 27.2502L21 29.0002L18 27.2502L15 25.5002V18.5002L18 16.7502L21 15.0002ZM21 15.0002V8.00024M27 25.0002L34 29.0002M15 25.0002L8 29.0002" stroke="#2555BB" stroke-width="4" stroke-linecap="round" stroke-linejoin="round"/>
<path id="Vector_2" d="M21 8C22.6569 8 24 6.65685 24 5C24 3.34315 22.6569 2 21 2C19.3431 2 18 3.34315 18 5C18 6.65685 19.3431 8 21 8Z" stroke="#2555BB" stroke-width="4" stroke-linecap="round" stroke-linejoin="round"/>
<path id="Vector_3" d="M5 34C6.65685 34 8 32.6569 8 31C8 29.3431 6.65685 28 5 28C3.34315 28 2 29.3431 2 31C2 32.6569 3.34315 34 5 34Z" stroke="#2555BB" stroke-width="4" stroke-linecap="round" stroke-linejoin="round"/>
<path id="Vector_4" d="M37 34C38.6569 34 40 32.6569 40 31C40 29.3431 38.6569 28 37 28C35.3431 28 34 29.3431 34 31C34 32.6569 35.3431 34 37 34Z" stroke="#2555BB" stroke-width="4" stroke-linecap="round" stroke-linejoin="round"/>
</g>
</svg>
